# xmcd
#
# Track frame offsets: 
#        150
#        13696
#        24643
#        35479
#        50273
#        62545
#        70764
#        83018
#        93894
#        101783
#        116239
#        129780
#        144413
#
# Disc length: 2079 seconds
#
# Revision: 0
# Processed by: cddbd v1.5.2PL0 Copyright (c) Steve Scherf et al.
# Submitted via: ExactAudioCopy v0.99pb4
#
DISCID=a3081d0d
DTITLE=Bully Boys - Be careful what you wish for
DYEAR=2009
DGENRE=Dance
TTITLE0=Anti-Social
TTITLE1=Pitch invasion
TTITLE2=All fired up again
TTITLE3=Dead man tell two tales
TTITLE4=Hell on wheels
TTITLE5=Hate me please
TTITLE6=A hero is born
TTITLE7=Be careful what you wish for
TTITLE8=Bar tramp
TTITLE9=Stranger
TTITLE10=Hate to survive '07
TTITLE11=Fight '07
TTITLE12=Rage on this '07
EXTD=
EXTT0=
EXTT1=
EXTT2=
EXTT3=
EXTT4=
EXTT5=
EXTT6=
EXTT7=
EXTT8=
EXTT9=
EXTT10=
EXTT11=
EXTT12=
PLAYORDER=
